<svg width="21" height="21" viewBox="0 0 21 21" fill="none" xmlns="http://www.w3.org/2000/svg">
<path d="M14.8022 6.5C14.8022 7.56087 14.3808 8.57828 13.6306 9.32843C12.8805 10.0786 11.8631 10.5 10.8022 10.5C9.74133 10.5 8.72392 10.0786 7.97377 9.32843C7.22363 8.57828 6.8022 7.56087 6.8022 6.5M2.43542 5.90138L1.73542 14.3014C1.58504 16.1059 1.50985 17.0082 1.81489 17.7042C2.08289 18.3157 2.54723 18.8204 3.13439 19.1382C3.80267 19.5 4.70806 19.5 6.51884 19.5H15.0856C16.8963 19.5 17.8017 19.5 18.47 19.1382C19.0572 18.8204 19.5215 18.3157 19.7895 17.7042C20.0945 17.0082 20.0194 16.1059 19.869 14.3014L19.169 5.90138C19.0396 4.34875 18.9749 3.57243 18.6311 2.98486C18.3283 2.46744 17.8775 2.0526 17.3367 1.79385C16.7226 1.5 15.9436 1.5 14.3856 1.5L7.21884 1.5C5.66082 1.5 4.88182 1.5 4.26772 1.79384C3.72694 2.0526 3.2761 2.46744 2.97333 2.98486C2.6295 3.57243 2.56481 4.34875 2.43542 5.90138Z" stroke="#334155" stroke-width="2" stroke-linecap="round" stroke-linejoin="round"/>
</svg>
