<svg width="18" height="18" viewBox="0 0 18 18" fill="none" xmlns="http://www.w3.org/2000/svg">
<path d="M8.40217 2.37774C8.59424 1.98863 8.69028 1.79407 8.82065 1.73191C8.93408 1.67782 9.06586 1.67782 9.1793 1.73191C9.30967 1.79407 9.40571 1.98863 9.59778 2.37774L11.42 6.06938C11.4767 6.18426 11.5051 6.2417 11.5465 6.28629C11.5832 6.32578 11.6272 6.35777 11.6761 6.3805C11.7313 6.40617 11.7946 6.41543 11.9214 6.43396L15.9975 7.02973C16.4267 7.09247 16.6413 7.12384 16.7406 7.22868C16.827 7.31989 16.8677 7.44523 16.8512 7.56979C16.8323 7.71296 16.6769 7.8643 16.3662 8.16696L13.4178 11.0387C13.3259 11.1282 13.28 11.1729 13.2503 11.2262C13.2241 11.2734 13.2072 11.3252 13.2007 11.3787C13.1934 11.4392 13.2042 11.5025 13.2259 11.6289L13.9216 15.6851C13.995 16.1129 14.0317 16.3268 13.9627 16.4537C13.9027 16.5642 13.7961 16.6416 13.6725 16.6645C13.5305 16.6909 13.3384 16.5899 12.9542 16.3878L9.31027 14.4715C9.19674 14.4118 9.13997 14.3819 9.08016 14.3702C9.02721 14.3598 8.97274 14.3598 8.91979 14.3702C8.85998 14.3819 8.80321 14.4118 8.68967 14.4715L5.04573 16.3878C4.66156 16.5899 4.46947 16.6909 4.32744 16.6645C4.20386 16.6416 4.09723 16.5642 4.03724 16.4537C3.96829 16.3268 4.00498 16.1129 4.07835 15.6851L4.77403 11.6289C4.79572 11.5025 4.80656 11.4392 4.79923 11.3787C4.79273 11.3252 4.77589 11.2734 4.74963 11.2262C4.71998 11.1729 4.67402 11.1282 4.58211 11.0387L1.63376 8.16696C1.32301 7.8643 1.16764 7.71296 1.14873 7.56979C1.13228 7.44523 1.17292 7.31989 1.25933 7.22868C1.35866 7.12384 1.57327 7.09247 2.0025 7.02973L6.07855 6.43396C6.20531 6.41543 6.26869 6.40617 6.32389 6.3805C6.37276 6.35777 6.41676 6.32578 6.45345 6.28629C6.49488 6.2417 6.52323 6.18426 6.57994 6.06938L8.40217 2.37774Z" fill="#FCD34D" stroke="#FCD34D" stroke-width="2" stroke-linecap="round" stroke-linejoin="round"/>
</svg>
